<svg xmlns="http://www.w3.org/2000/svg" enable-background="new 0 0 32 32" viewBox="0 0 32 32" id="discord"><path fill="#ffe6e2" d="m26 32h-20c-3.314 0-6-2.686-6-6v-20c0-3.314 2.686-6 6-6h20c3.314 0 6 2.686 6 6v20c0 3.314-2.686 6-6 6z"></path><path fill="#fc573b" d="m22.667 8h-13.334c-.736 0-1.333.597-1.333 1.333v13.333c0 .737.597 1.334 1.333 1.334h13.333c.737 0 1.334-.597 1.334-1.333v-13.334c0-.736-.597-1.333-1.333-1.333zm-4.984 3.894h.017l-.027.009zm1.119 8.155s-.384-.434-.657-.814c1.327-.381 1.822-1.142 1.822-1.142-2.226 1.401-4.879 1.411-6.783.599-.223-.106-.496-.215-.769-.325-.025 0-.036-.011-.05-.024v-.005c-.013-.012-.025-.024-.05-.024h-.05c-.166-.109-.277-.163-.277-.163s.496.762 1.769 1.142c-.335.382-.665.815-.665.815-2.266-.054-3.092-1.47-3.092-1.47 0-3.154 1.492-5.712 1.492-5.712 1.492-1.085 2.874-1.033 2.874-1.033l.112.11c-1.825.435-2.653 1.251-2.653 1.251.1-.007 3.762-2.148 8.235.054 0 0-.829-.762-2.542-1.251l.152-.149c.237.001 1.49.045 2.831 1.025 0 0 1.5 2.563 1.5 5.712-.051-.061-.932 1.355-3.199 1.404z"></path><g fill="#fd907e"><path d="M14.093 15.484l-.003.002c-.579 0-1.05.487-1.05 1.089 0 .597.471 1.085 1.05 1.085.578 0 1.05-.488 1.05-1.09-.001-.598-.469-1.086-1.047-1.086zM17.847 15.484v.002c-.576 0-1.048.487-1.05 1.089 0 .597.471 1.085 1.05 1.085.578 0 1.05-.488 1.05-1.09 0-.598-.469-1.086-1.05-1.086z"></path></g></svg>